<svg width="91" height="90" fill="none" xmlns="http://www.w3.org/2000/svg"><path d="M8 37.5v15c0 7.5 3.75 11.25 11.25 11.25h5.363c1.387 0 2.774.412 3.974 1.125l10.95 6.862c9.45 5.925 17.213 1.613 17.213-9.525V27.787c0-11.175-7.763-15.45-17.212-9.525l-10.95 6.863c-1.2.712-2.588 1.125-3.976 1.125H19.25C11.75 26.25 8 30 8 37.5z" stroke="#fff" stroke-width="1.5"/><path d="M68 30a24.975 24.975 0 010 30m6.862-39.375a40.613 40.613 0 010 48.75" stroke="#fff" stroke-width="1.5" stroke-linecap="round" stroke-linejoin="round"/></svg>